<svg width="24" height="24" viewBox="0 0 24 24" fill="none" xmlns="http://www.w3.org/2000/svg">
<path d="M20 12.7207C19.8599 14.237 19.2908 15.682 18.3594 16.8867C17.428 18.0914 16.1728 19.0059 14.7406 19.5232C13.3084 20.0405 11.7585 20.1392 10.2723 19.8078C8.786 19.4764 7.42487 18.7286 6.34813 17.6519C5.27138 16.5751 4.52356 15.214 4.19216 13.7277C3.86076 12.2415 3.9595 10.6916 4.47681 9.25942C4.99413 7.82724 5.90862 6.572 7.1133 5.64059C8.31797 4.70918 9.76299 4.14012 11.2793 4C10.3915 5.20101 9.96435 6.68075 10.0754 8.1701C10.1865 9.65945 10.8284 11.0595 11.8845 12.1155C12.9405 13.1716 14.3405 13.8135 15.8299 13.9246C17.3192 14.0356 18.799 13.6085 20 12.7207Z" stroke="black" stroke-width="1.5" stroke-linecap="round"/>
</svg>
